<svg xmlns="http://www.w3.org/2000/svg" width="60" height="60" viewBox="0 0 60 60"><defs><style>.a{fill:#221f20;}</style></defs><path class="a" d="M23.16,46.33a18.23,18.23,0,0,1-9.49-9.49,17.52,17.52,0,0,1,0-13.68,18.39,18.39,0,0,1,3.83-5.65,18.13,18.13,0,0,1,5.65-3.84,17.52,17.52,0,0,1,13.68,0,18.2,18.2,0,0,1,9.5,9.49,17.52,17.52,0,0,1,0,13.68,18.23,18.23,0,0,1-9.49,9.49,17.52,17.52,0,0,1-13.68,0Zm12.6-2.71a14.76,14.76,0,0,0,7.87-7.87,15.13,15.13,0,0,0,0-11.5,15.18,15.18,0,0,0-3.18-4.71,14.86,14.86,0,0,0-4.71-3.17,15.19,15.19,0,0,0-11.5,0,14.78,14.78,0,0,0-4.69,3.17,15.09,15.09,0,0,0-3.15,4.71,15.07,15.07,0,0,0,0,11.5,14.79,14.79,0,0,0,3.16,4.7,15,15,0,0,0,4.7,3.17,15.1,15.1,0,0,0,11.51,0ZM20.05,31.53a1.18,1.18,0,0,1-.35-.87,1.15,1.15,0,0,1,.35-.85,1.18,1.18,0,0,1,.87-.35h7.86V19a1.2,1.2,0,0,1,1.2-1.2,1.18,1.18,0,0,1,.87.35,1.17,1.17,0,0,1,.35.85V30.66A1.2,1.2,0,0,1,30,31.88H20.92A1.18,1.18,0,0,1,20.05,31.53Z"/></svg>