<svg xmlns="http://www.w3.org/2000/svg" width="60" height="60" viewBox="0 0 60 60"><defs><style>.a{fill:#221f20;}</style></defs><path class="a" d="M12.28,30A4.94,4.94,0,0,1,14,26.56L26.58,14A4.87,4.87,0,0,1,30,12.28,5.09,5.09,0,0,1,33.47,14L46,26.53A5.09,5.09,0,0,1,47.72,30,4.83,4.83,0,0,1,46,33.42L33.44,46A4.89,4.89,0,0,1,30,47.72,5.05,5.05,0,0,1,26.55,46L14,33.45A5.05,5.05,0,0,1,12.28,30Zm11.06,5.64a1.21,1.21,0,0,0,1,.38,1.28,1.28,0,0,0,.95-.39,1.54,1.54,0,0,0,.34-1.08v-4a2.17,2.17,0,0,1,.53-1.6,2.09,2.09,0,0,1,1.55-.53h4.41v2.07a1.05,1.05,0,0,0,.64,1.07,1.19,1.19,0,0,0,1.25-.2l3.81-3a1.45,1.45,0,0,0,0-2.54l-3.81-3a1.17,1.17,0,0,0-1.25-.21,1,1,0,0,0-.64,1.06v2.07H27.63A4.75,4.75,0,0,0,24.14,27,4.69,4.69,0,0,0,23,30.45v4.11A1.58,1.58,0,0,0,23.34,35.65Z"/></svg>